<svg width="17" height="11" viewBox="0 0 17 11" fill="none" xmlns="http://www.w3.org/2000/svg">
<path d="M2.22186 5.52185L5.61248 8.91248C5.7729 9.07289 5.85311 9.27706 5.85311 9.52498C5.85311 9.77289 5.7729 9.97706 5.61248 10.1375C5.45207 10.2979 5.2479 10.3781 4.99998 10.3781C4.75207 10.3781 4.5479 10.2979 4.38748 10.1375L0.362484 6.11248C0.274984 6.02498 0.212859 5.93018 0.176109 5.8281C0.139359 5.72602 0.121568 5.61664 0.122735 5.49998C0.123901 5.38331 0.142276 5.27393 0.177859 5.17185C0.213443 5.06977 0.275276 4.97498 0.363359 4.88748L4.38836 0.862475C4.56336 0.687475 4.77132 0.599976 5.01223 0.599976C5.25315 0.599976 5.46082 0.687475 5.63523 0.862475C5.80965 1.03748 5.89715 1.24543 5.89773 1.48635C5.89832 1.72727 5.81082 1.93493 5.63523 2.10935L2.22186 5.52185ZM14.7781 5.4781L11.3875 2.08748C11.2271 1.92706 11.1469 1.72289 11.1469 1.47498C11.1469 1.22706 11.2271 1.02289 11.3875 0.862475C11.5479 0.702059 11.7521 0.621851 12 0.621851C12.2479 0.621851 12.4521 0.702059 12.6125 0.862475L16.6375 4.88748C16.725 4.97498 16.7871 5.06977 16.8239 5.17185C16.8606 5.27393 16.8787 5.38331 16.8781 5.49998C16.8775 5.61664 16.8594 5.72602 16.8239 5.8281C16.7883 5.93018 16.7262 6.02498 16.6375 6.11248L12.6125 10.1375C12.4375 10.3125 12.2333 10.3965 12 10.3895C11.7667 10.3825 11.5625 10.2912 11.3875 10.1156C11.2125 9.94002 11.125 9.73235 11.125 9.4926C11.125 9.25285 11.2125 9.04489 11.3875 8.86873L14.7781 5.4781Z" fill="black"/>
</svg>
