<svg width="12" height="12" viewBox="0 0 12 12" fill="none" xmlns="http://www.w3.org/2000/svg">
<path d="M3.88333 6L4.86667 5.01667C5 4.88333 5.06667 4.72778 5.06667 4.55C5.06667 4.37222 5 4.21667 4.86667 4.08333C4.73333 3.95 4.57511 3.88333 4.392 3.88333C4.20889 3.88333 4.05044 3.95 3.91667 4.08333L2.46667 5.53333C2.4 5.6 2.35267 5.67222 2.32467 5.75C2.29667 5.82778 2.28289 5.91111 2.28333 6C2.28378 6.08889 2.29756 6.17222 2.32467 6.25C2.35178 6.32778 2.39911 6.4 2.46667 6.46667L3.91667 7.91667C4.05 8.05 4.20844 8.11667 4.392 8.11667C4.57556 8.11667 4.73378 8.05 4.86667 7.91667C4.99956 7.78333 5.06622 7.62778 5.06667 7.45C5.06711 7.27222 5.00044 7.11667 4.86667 6.98333L3.88333 6ZM8.11667 6L7.13333 6.98333C7 7.11667 6.93333 7.27222 6.93333 7.45C6.93333 7.62778 7 7.78333 7.13333 7.91667C7.26667 8.05 7.42511 8.11667 7.60867 8.11667C7.79222 8.11667 7.95044 8.05 8.08333 7.91667L9.53333 6.46667C9.6 6.4 9.64733 6.32778 9.67533 6.25C9.70333 6.17222 9.71711 6.08889 9.71667 6C9.71622 5.91111 9.70244 5.82778 9.67533 5.75C9.64822 5.67222 9.60089 5.6 9.53333 5.53333L8.08333 4.08333C8.01667 4.01667 7.94178 3.96667 7.85867 3.93333C7.77556 3.9 7.692 3.88333 7.608 3.88333C7.524 3.88333 7.44067 3.9 7.358 3.93333C7.27533 3.96667 7.20044 4.01667 7.13333 4.08333C7 4.21667 6.93333 4.37222 6.93333 4.55C6.93333 4.72778 7 4.88333 7.13333 5.01667L8.11667 6ZM1.33333 12C0.966667 12 0.652889 11.8696 0.392 11.6087C0.131111 11.3478 0.000444444 11.0338 0 10.6667V1.33333C0 0.966667 0.130667 0.652889 0.392 0.392C0.653333 0.131111 0.967111 0.000444444 1.33333 0H10.6667C11.0333 0 11.3473 0.130667 11.6087 0.392C11.87 0.653333 12.0004 0.967111 12 1.33333V10.6667C12 11.0333 11.8696 11.3473 11.6087 11.6087C11.3478 11.87 11.0338 12.0004 10.6667 12H1.33333Z" fill="black"/>
</svg>
