<svg width="15" height="12" viewBox="0 0 15 12" fill="none" xmlns="http://www.w3.org/2000/svg">
<path d="M2.99998 8.00001C2.44443 8.00001 1.9722 7.80557 1.58332 7.41668C1.19443 7.02779 0.999982 6.55557 0.999982 6.00001V4.00001C0.999982 3.81112 1.06398 3.6529 1.19198 3.52535C1.31998 3.39779 1.4782 3.33379 1.66665 3.33335H9.68332C9.73887 2.96668 9.88887 2.6389 10.1333 2.35001C10.3778 2.06112 10.6778 1.85557 11.0333 1.73335L13.4833 0.91668C13.6611 0.861125 13.8333 0.872236 14 0.950014C14.1666 1.02779 14.2778 1.15557 14.3333 1.33335C14.3889 1.51112 14.3751 1.68335 14.292 1.85001C14.2089 2.01668 14.0782 2.12779 13.9 2.18335L11.45 3.00001C11.3166 3.04446 11.2082 3.12512 11.1246 3.24201C11.0411 3.3589 10.9995 3.48935 11 3.63335V6.00001C11 6.55557 10.8055 7.02779 10.4166 7.41668C10.0278 7.80557 9.55554 8.00001 8.99998 8.00001H2.99998ZM4.99998 11.3333V10H0.999982C0.811093 10 0.652871 9.93601 0.525315 9.80801C0.39776 9.68001 0.33376 9.52179 0.333315 9.33335C0.332871 9.1449 0.396871 8.98668 0.525315 8.85868C0.65376 8.73068 0.811982 8.66668 0.999982 8.66668H4.99998C5.36665 8.66668 5.68065 8.79735 5.94198 9.05868C6.20332 9.32001 6.33376 9.63379 6.33332 10V11.3333C6.33332 11.5222 6.26932 11.6807 6.14132 11.8087C6.01332 11.9367 5.85509 12.0005 5.66665 12C5.4782 11.9996 5.31998 11.9356 5.19198 11.808C5.06398 11.6805 4.99998 11.5222 4.99998 11.3333ZM7.66665 11.3333V10C7.66665 9.63335 7.79732 9.31957 8.05865 9.05868C8.31998 8.79779 8.63376 8.66712 8.99998 8.66668H13C13.1889 8.66668 13.3473 8.73068 13.4753 8.85868C13.6033 8.98668 13.6671 9.1449 13.6666 9.33335C13.6662 9.52179 13.6022 9.68024 13.4746 9.80868C13.3471 9.93712 13.1889 10.0009 13 10H8.99998V11.3333C8.99998 11.5222 8.93598 11.6807 8.80798 11.8087C8.67998 11.9367 8.52176 12.0005 8.33332 12C8.14487 11.9996 7.98665 11.9356 7.85865 11.808C7.73065 11.6805 7.66665 11.5222 7.66665 11.3333Z" fill="black"/>
</svg>
