<svg width="14" height="14" viewBox="0 0 14 14" fill="none" xmlns="http://www.w3.org/2000/svg">
<path fill-rule="evenodd" clip-rule="evenodd" d="M3.5 0C3.7299 0 3.94193 0.124003 4.05464 0.324379L6.91827 5.41529C7.02911 5.61233 7.02709 5.85339 6.91295 6.04854C6.79882 6.24369 6.58971 6.36364 6.36364 6.36364H0.636364C0.410287 6.36364 0.201183 6.24369 0.0870486 6.04854C-0.0270855 5.85339 -0.0291122 5.61233 0.0817247 5.41529L2.94536 0.324379C3.05807 0.124003 3.2701 0 3.5 0ZM8.5683 0.931933C9.165 0.335226 9.97431 0 10.8182 0C11.6621 0 12.4714 0.335226 13.0681 0.931933C13.6648 1.52864 14 2.33795 14 3.18182C14 4.02569 13.6648 4.835 13.0681 5.4317C12.4714 6.02841 11.6621 6.36364 10.8182 6.36364C9.97431 6.36364 9.165 6.02841 8.5683 5.4317C7.97159 4.835 7.63636 4.02569 7.63636 3.18182C7.63636 2.33795 7.97159 1.52864 8.5683 0.931933ZM10.8182 1.27273C10.3119 1.27273 9.82627 1.47386 9.46825 1.83189C9.11023 2.18991 8.90909 2.6755 8.90909 3.18182C8.90909 3.68814 9.11023 4.17373 9.46825 4.53175C9.82627 4.88977 10.3119 5.09091 10.8182 5.09091C11.3245 5.09091 11.8101 4.88977 12.1681 4.53175C12.5261 4.17373 12.7273 3.68814 12.7273 3.18182C12.7273 2.6755 12.5261 2.18991 12.1681 1.83189C11.8101 1.47386 11.3245 1.27273 10.8182 1.27273ZM1.72445 5.09091H5.27555L3.5 1.93437L1.72445 5.09091ZM7.63636 8.27273C7.63636 7.92127 7.92127 7.63636 8.27273 7.63636H13.3636C13.7151 7.63636 14 7.92127 14 8.27273V13.3636C14 13.7151 13.7151 14 13.3636 14H8.27273C7.92127 14 7.63636 13.7151 7.63636 13.3636V8.27273ZM8.90909 8.90909V12.7273H12.7273V8.90909H8.90909Z" fill="black"/>
<path fill-rule="evenodd" clip-rule="evenodd" d="M0.175736 8.17574C0.410051 7.94142 0.78995 7.94142 1.02426 8.17574L3 10.1515L4.97574 8.17574C5.21005 7.94142 5.58995 7.94142 5.82426 8.17574C6.05858 8.41005 6.05858 8.78995 5.82426 9.02426L3.84853 11L5.82426 12.9757C6.05858 13.2101 6.05858 13.5899 5.82426 13.8243C5.58995 14.0586 5.21005 14.0586 4.97574 13.8243L3 11.8485L1.02426 13.8243C0.78995 14.0586 0.410051 14.0586 0.175736 13.8243C-0.0585787 13.5899 -0.0585787 13.2101 0.175736 12.9757L2.15147 11L0.175736 9.02426C-0.0585787 8.78995 -0.0585787 8.41005 0.175736 8.17574Z" fill="black"/>
</svg>
