<svg width="16" height="10" viewBox="0 0 16 10" fill="none" xmlns="http://www.w3.org/2000/svg">
<path d="M2 9.5C1.5875 9.5 1.2345 9.35325 0.941 9.05975C0.6475 8.76625 0.5005 8.413 0.5 8V2C0.5 1.5875 0.647 1.2345 0.941 0.941C1.235 0.6475 1.588 0.5005 2 0.5H14C14.4125 0.5 14.7657 0.647 15.0597 0.941C15.3538 1.235 15.5005 1.588 15.5 2V8C15.5 8.4125 15.3533 8.76575 15.0597 9.05975C14.7662 9.35375 14.413 9.5005 14 9.5H2ZM4.25 5.75V6.5C4.25 6.7125 4.322 6.89075 4.466 7.03475C4.61 7.17875 4.788 7.2505 5 7.25C5.212 7.2495 5.39025 7.1775 5.53475 7.034C5.67925 6.8905 5.751 6.7125 5.75 6.5V5.75H6.5C6.7125 5.75 6.89075 5.678 7.03475 5.534C7.17875 5.39 7.2505 5.212 7.25 5C7.2495 4.788 7.1775 4.61 7.034 4.466C6.8905 4.322 6.7125 4.25 6.5 4.25H5.75V3.5C5.75 3.2875 5.678 3.1095 5.534 2.966C5.39 2.8225 5.212 2.7505 5 2.75C4.788 2.7495 4.61 2.8215 4.466 2.966C4.322 3.1105 4.25 3.2885 4.25 3.5V4.25H3.5C3.2875 4.25 3.1095 4.322 2.966 4.466C2.8225 4.61 2.7505 4.788 2.75 5C2.7495 5.212 2.8215 5.39025 2.966 5.53475C3.1105 5.67925 3.2885 5.751 3.5 5.75H4.25ZM9.875 7.25C10.1875 7.25 10.4532 7.14075 10.6722 6.92225C10.8912 6.70375 11.0005 6.438 11 6.125C10.9995 5.812 10.8903 5.5465 10.6722 5.3285C10.4542 5.1105 10.1885 5.001 9.875 5C9.5615 4.999 9.296 5.1085 9.0785 5.3285C8.861 5.5485 8.7515 5.814 8.75 6.125C8.7485 6.436 8.858 6.70175 9.0785 6.92225C9.299 7.14275 9.5645 7.252 9.875 7.25ZM12.125 5C12.4375 5 12.7032 4.89075 12.9222 4.67225C13.1412 4.45375 13.2505 4.188 13.25 3.875C13.2495 3.562 13.1403 3.2965 12.9222 3.0785C12.7042 2.8605 12.4385 2.751 12.125 2.75C11.8115 2.749 11.546 2.8585 11.3285 3.0785C11.111 3.2985 11.0015 3.564 11 3.875C10.9985 4.186 11.108 4.45175 11.3285 4.67225C11.549 4.89275 11.8145 5.002 12.125 5Z" fill="black"/>
</svg>
