<svg width="16" height="16" viewBox="0 0 16 16" fill="none" xmlns="http://www.w3.org/2000/svg">
<g clip-path="url(#clip0_27_57)">
<path d="M10 0.75H0.5V10.25H6V15.5H15.5V6H10V0.75ZM4.63453 3L3.06541 7.47813H4.125L4.38019 6.75H6V9.25H1.5V1.75H9V6H6.91663L5.86562 3H4.63453ZM5.76944 5.75H4.73056L5.25 4.26756L5.76944 5.75ZM14.5 7V14.5H7V7H14.5Z" fill="black"/>
<path d="M9.91975 11.515C10.0154 11.6686 10.1207 11.816 10.235 11.9563C9.87253 12.1518 9.46085 12.2497 9 12.25V13.25C9.75441 13.25 10.4284 13.0497 11 12.6617C11.5716 13.0497 12.2456 13.25 13 13.25V12.25C12.5401 12.25 12.1284 12.152 11.765 11.956C11.8793 11.8158 11.9846 11.6685 12.0802 11.515C12.3685 11.0464 12.5804 10.5351 12.7082 10H13.25V9H11.5V8.25H10.5V9H8.75V10H9.29181C9.41957 10.5351 9.63153 11.0464 9.91975 11.515ZM11.6728 10C11.5694 10.3461 11.4212 10.6772 11.2322 10.985C11.1616 11.0985 11.084 11.2075 11 11.3115C10.9221 11.2152 10.8498 11.1145 10.7834 11.0099C10.5867 10.6953 10.4332 10.3556 10.3271 10H11.6728Z" fill="black"/>
</g>
<defs>
<clipPath id="clip0_27_57">
<rect width="16" height="16" fill="white"/>
</clipPath>
</defs>
</svg>
