<svg width="11" height="11" viewBox="0 0 11 11" fill="none" xmlns="http://www.w3.org/2000/svg">
<path d="M5.49998 0.39624C4.81444 0.39624 4.3214 0.758996 4.03665 1.21458C3.78198 1.62202 3.67602 2.09462 3.65535 2.50854C2.8782 2.89282 2.01728 3.28026 1.32411 3.67635C0.960521 3.88413 0.643518 4.09312 0.404897 4.31772C0.166276 4.54228 -0.00978238 4.79517 -0.00978238 5.09351C-0.00978238 5.22046 0.0521707 5.32393 0.121995 5.39984C0.191921 5.47576 0.27571 5.53472 0.371128 5.58977C0.561938 5.69986 0.802515 5.79162 1.06714 5.87099C1.46026 5.98896 1.90053 6.07666 2.28335 6.11416C1.90259 6.77025 1.39587 7.37287 0.951684 7.95028C0.438362 8.6176 -0.00978238 9.25757 -0.00978238 9.96851C-0.00978238 10.0701 -0.0108995 10.1494 -0.00191125 10.229C0.00710242 10.3087 0.0299794 10.4081 0.110061 10.4869C0.190143 10.5657 0.288227 10.5869 0.368106 10.5956C0.447985 10.6043 0.528448 10.6033 0.631661 10.6033H3.46378C3.66937 10.6033 3.81991 10.6158 3.97477 10.5162C4.12965 10.4167 4.18612 10.2807 4.29647 10.0776L4.2987 10.0735L4.30073 10.0693C4.30073 10.0693 4.54761 9.56731 4.84216 9.0692C4.98943 8.82017 5.14931 8.57215 5.28838 8.3964C5.35795 8.30854 5.42305 8.23887 5.46992 8.19952C5.48424 8.18753 5.49074 8.1853 5.49998 8.18022C5.5092 8.1853 5.51573 8.18753 5.53005 8.19952C5.57692 8.23887 5.64202 8.30854 5.71159 8.3964C5.85065 8.57215 6.01054 8.82017 6.1578 9.0692C6.45233 9.56731 6.69923 10.0693 6.69923 10.0693L6.70127 10.0734L6.7035 10.0775C6.81385 10.2806 6.86981 10.4158 7.02368 10.5156C7.17749 10.6154 7.3277 10.6032 7.5304 10.6032H10.375C10.4765 10.6032 10.5558 10.6043 10.6351 10.5955C10.7144 10.5867 10.8128 10.5648 10.892 10.4855C10.9713 10.4062 10.9932 10.3078 11.002 10.2285C11.0108 10.1493 11.0097 10.07 11.0097 9.96843C11.0097 9.25749 10.5616 8.61752 10.0483 7.95018C9.60412 7.3728 9.0974 6.77018 8.71662 6.11406C9.09943 6.07653 9.53971 5.98888 9.93283 5.87092C10.1975 5.79157 10.438 5.69978 10.6288 5.58972C10.7243 5.53467 10.808 5.47571 10.8779 5.39979C10.9478 5.32388 11.0097 5.22041 11.0097 5.09346C11.0097 4.79512 10.8337 4.54223 10.5951 4.31767C10.3564 4.09307 10.0394 3.88407 9.67585 3.6763C8.98269 3.28021 8.12177 2.89275 7.34461 2.50849C7.32394 2.09462 7.21796 1.62197 6.96332 1.21458C6.67857 0.758971 6.18553 0.39624 5.49998 0.39624Z" fill="black"/>
</svg>
