<svg width="17" height="14" viewBox="0 0 17 14" fill="none" xmlns="http://www.w3.org/2000/svg">
<path d="M3.53752 11.3313C3.28752 11.1938 3.09377 11.0096 2.95627 10.7786C2.81877 10.5476 2.75002 10.2881 2.75002 10.0001V6.40006L0.950024 5.40631C0.812524 5.33131 0.712524 5.23756 0.650024 5.12506C0.587524 5.01256 0.556274 4.88756 0.556274 4.75006C0.556274 4.61256 0.587524 4.48756 0.650024 4.37506C0.712524 4.26256 0.812524 4.16881 0.950024 4.09381L7.28752 0.643811C7.40002 0.581311 7.51577 0.53431 7.63477 0.50281C7.75377 0.47131 7.87552 0.455811 8.00002 0.456311C8.12452 0.456811 8.24652 0.472561 8.36602 0.503561C8.48552 0.534561 8.60102 0.581311 8.71252 0.643811L15.8563 4.54381C15.9813 4.60631 16.0783 4.69706 16.1473 4.81606C16.2163 4.93506 16.2505 5.06306 16.25 5.20006V10.0001C16.25 10.2126 16.178 10.3908 16.034 10.5348C15.89 10.6788 15.712 10.7506 15.5 10.7501C15.288 10.7496 15.11 10.6776 14.966 10.5341C14.822 10.3906 14.75 10.2126 14.75 10.0001V5.57506L13.25 6.40006V10.0001C13.25 10.2876 13.1813 10.5471 13.0438 10.7786C12.9063 11.0101 12.7125 11.1943 12.4625 11.3313L8.71252 13.3563C8.60002 13.4188 8.48452 13.4658 8.36602 13.4973C8.24752 13.5288 8.12552 13.5443 8.00002 13.5438C7.87452 13.5433 7.75252 13.5278 7.63402 13.4973C7.51552 13.4668 7.40002 13.4198 7.28752 13.3563L3.53752 11.3313ZM8.00002 7.52506L13.1375 4.75006L8.00002 1.97506L2.86252 4.75006L8.00002 7.52506ZM8.00002 12.0438L11.75 10.0188V7.18756L8.73127 8.85631C8.61877 8.91881 8.50002 8.96581 8.37502 8.99731C8.25002 9.02881 8.12502 9.04431 8.00002 9.04381C7.87502 9.04331 7.75002 9.02781 7.62502 8.99731C7.50002 8.96681 7.38127 8.91981 7.26877 8.85631L4.25002 7.18756V10.0188L8.00002 12.0438Z" fill="black"/>
</svg>
