<svg width="12" height="14" viewBox="0 0 12 14" fill="none" xmlns="http://www.w3.org/2000/svg">
<path d="M3.7 13.6666C3.38889 13.6666 3.11667 13.5722 2.88333 13.3833C2.65 13.1944 2.49444 12.95 2.41667 12.65L1.66667 9.66663H10.3333L9.58333 12.65C9.50556 12.95 9.35 13.1944 9.11667 13.3833C8.88333 13.5722 8.61111 13.6666 8.3 13.6666H3.7ZM6 4.3333C6 3.3333 6.33889 2.46663 7.01667 1.7333C7.69444 0.999965 8.53889 0.55552 9.55 0.399965C9.60556 0.388854 9.65556 0.394409 9.7 0.416631C9.74444 0.438854 9.78889 0.466631 9.83333 0.499965C9.87778 0.533298 9.90845 0.574854 9.92533 0.624631C9.94222 0.674409 9.94489 0.727298 9.93333 0.783298C9.81111 1.66108 9.45289 2.42485 8.85867 3.07463C8.26444 3.72441 7.53378 4.12174 6.66667 4.26663V5.66663H11.3333C11.5222 5.66663 11.6807 5.73063 11.8087 5.85863C11.9367 5.98663 12.0004 6.14485 12 6.3333V7.66663C12 8.0333 11.8696 8.3473 11.6087 8.60863C11.3478 8.86996 11.0338 9.00041 10.6667 8.99996H1.33333C0.966667 8.99996 0.652889 8.86952 0.392 8.60863C0.131111 8.34774 0.000444444 8.03374 0 7.66663V6.3333C0 6.14441 0.0640001 5.98619 0.192 5.85863C0.32 5.73108 0.478222 5.66708 0.666667 5.66663H5.33333V4.26663C4.46667 4.12219 3.73622 3.72508 3.142 3.0753C2.54778 2.42552 2.18933 1.66152 2.06667 0.783298C2.05556 0.727743 2.05844 0.675076 2.07533 0.625298C2.09222 0.57552 2.12267 0.533743 2.16667 0.499965C2.21067 0.466187 2.25511 0.438409 2.3 0.416631C2.34489 0.394854 2.39489 0.389298 2.45 0.399965C3.46111 0.55552 4.30556 0.999965 4.98333 1.7333C5.66111 2.46663 6 3.3333 6 4.3333Z" fill="black"/>
</svg>
