<svg width="16" height="15" viewBox="0 0 16 15" fill="none" xmlns="http://www.w3.org/2000/svg">
<path d="M2 14.75C1.5875 14.75 1.2345 14.6033 0.941 14.3097C0.6475 14.0162 0.5005 13.663 0.5 13.25V5C0.5 4.5875 0.647 4.2345 0.941 3.941C1.235 3.6475 1.588 3.5005 2 3.5H5V2C5 1.5875 5.147 1.2345 5.441 0.941C5.735 0.6475 6.088 0.5005 6.5 0.5H9.5C9.9125 0.5 10.2657 0.647 10.5597 0.941C10.8538 1.235 11.0005 1.588 11 2V3.5H14C14.4125 3.5 14.7657 3.647 15.0597 3.941C15.3538 4.235 15.5005 4.588 15.5 5V13.25C15.5 13.6625 15.3533 14.0157 15.0597 14.3097C14.7662 14.6038 14.413 14.7505 14 14.75H2ZM2 13.25H14V5H2V13.25ZM6.5 3.5H9.5V2H6.5V3.5Z" fill="black"/>
</svg>
